<mxfile host="app.diagrams.net" modified="2021-09-30T07:12:18.789Z" agent="5.0 (Windows NT 10.0; Win64; x64) AppleWebKit/537.36 (KHTML, like Gecko) Chrome/94.0.4606.61 Safari/537.36 Edg/94.0.992.31" etag="9nOc6WYEuqgWNVaf6BMN" version="15.3.8" type="github">
  <diagram id="HYYNo5zLJtzgqVmK_mss" name="Page-1">
    <mxGraphModel dx="1422" dy="794" grid="0" gridSize="10" guides="1" tooltips="1" connect="1" arrows="1" fold="1" page="1" pageScale="1" pageWidth="827" pageHeight="1169" background="none" math="0" shadow="0">
      <root>
        <mxCell id="0" />
        <mxCell id="1" parent="0" />
        <mxCell id="HUQSWuf8Cv_QBcwu_4tk-1" value="JSON" style="rounded=0;whiteSpace=wrap;html=1;fillColor=#dae8fc;strokeColor=#6c8ebf;gradientColor=#7ea6e0;" parent="1" vertex="1">
          <mxGeometry x="240" y="220" width="320" height="40" as="geometry" />
        </mxCell>
        <mxCell id="AsFpSeU_M4yr5rN3d6or-1" value="HTTP" style="rounded=0;whiteSpace=wrap;html=1;gradientColor=#7ea6e0;fillColor=#dae8fc;strokeColor=#6c8ebf;" vertex="1" parent="1">
          <mxGeometry x="240" y="280" width="320" height="40" as="geometry" />
        </mxCell>
        <mxCell id="AsFpSeU_M4yr5rN3d6or-2" value="TCP" style="rounded=0;whiteSpace=wrap;html=1;gradientColor=#7ea6e0;fillColor=#dae8fc;strokeColor=#6c8ebf;" vertex="1" parent="1">
          <mxGeometry x="240" y="340" width="320" height="40" as="geometry" />
        </mxCell>
        <mxCell id="AsFpSeU_M4yr5rN3d6or-3" value="IP" style="rounded=0;whiteSpace=wrap;html=1;gradientColor=#7ea6e0;fillColor=#dae8fc;strokeColor=#6c8ebf;" vertex="1" parent="1">
          <mxGeometry x="240" y="400" width="320" height="40" as="geometry" />
        </mxCell>
        <mxCell id="AsFpSeU_M4yr5rN3d6or-4" value="USSD 命令/菜单" style="rounded=0;whiteSpace=wrap;html=1;fillColor=#dae8fc;strokeColor=#6c8ebf;gradientColor=#7ea6e0;" vertex="1" parent="1">
          <mxGeometry x="240" y="160" width="320" height="40" as="geometry" />
        </mxCell>
      </root>
    </mxGraphModel>
  </diagram>
</mxfile>
